<svg xmlns="http://www.w3.org/2000/svg" xmlns:xlink="http://www.w3.org/1999/xlink" width="500" zoomAndPan="magnify" viewBox="0 0 375 374.999991" height="500" preserveAspectRatio="xMidYMid meet" version="1.0"><defs><g/><clipPath id="a7632f1ec3"><path d="M 126.300781 98 L 218 98 L 218 182 L 126.300781 182 Z M 126.300781 98 " clip-rule="nonzero"/></clipPath><clipPath id="94720d684e"><path d="M 157 121 L 241 121 L 241 212.429688 L 157 212.429688 Z M 157 121 " clip-rule="nonzero"/></clipPath><clipPath id="f3b5700e3e"><path d="M 218 90.179688 L 248.550781 90.179688 L 248.550781 121 L 218 121 Z M 218 90.179688 " clip-rule="nonzero"/></clipPath></defs><g clip-path="url(#a7632f1ec3)"><path fill="#e5014c" d="M 140.367188 155.597656 C 140.367188 155.671875 140.367188 155.753906 140.375 155.824219 L 199.597656 125.019531 L 132.347656 181.15625 C 128.476562 173.472656 126.300781 164.785156 126.300781 155.597656 C 126.300781 124.132812 151.808594 98.628906 183.277344 98.628906 C 196.128906 98.628906 207.984375 102.878906 217.511719 110.0625 L 206.320312 119.40625 C 199.664062 115.15625 191.757812 112.699219 183.277344 112.699219 C 159.578125 112.699219 140.367188 131.902344 140.367188 155.597656 Z M 140.367188 155.597656 " fill-opacity="1" fill-rule="nonzero"/></g><g clip-path="url(#94720d684e)"><path fill="#e5014c" d="M 240.246094 155.597656 C 240.246094 187.0625 214.738281 212.570312 183.277344 212.570312 C 174.085938 212.570312 165.398438 210.394531 157.714844 206.523438 L 164.046875 198.945312 L 167.0625 195.332031 L 213.847656 139.277344 L 183.042969 198.496094 C 183.125 198.5 183.195312 198.5 183.277344 198.5 C 206.96875 198.5 226.175781 179.292969 226.175781 155.597656 C 226.175781 147.113281 223.710938 139.203125 219.46875 132.542969 L 228.804688 121.355469 C 235.992188 130.886719 240.246094 142.746094 240.246094 155.597656 Z M 240.246094 155.597656 " fill-opacity="1" fill-rule="nonzero"/></g><path fill="#e5014c" d="M 147.289062 178.96875 L 136.433594 188.035156 C 140.332031 193.65625 145.214844 198.539062 150.835938 202.4375 L 159.898438 191.582031 L 214.496094 126.175781 L 223.558594 115.316406 L 212.699219 124.378906 Z M 147.289062 178.96875 " fill-opacity="1" fill-rule="nonzero"/><g clip-path="url(#f3b5700e3e)"><path fill="#e5014c" d="M 218.21875 103.136719 C 220.78125 104.878906 223.214844 106.800781 225.503906 108.878906 L 237.726562 101.148438 L 229.996094 113.371094 C 232.074219 115.65625 233.992188 118.089844 235.730469 120.652344 L 248.695312 90.179688 Z M 218.21875 103.136719 " fill-opacity="1" fill-rule="nonzero"/></g><g fill="#e5014c" fill-opacity="1"><g transform="translate(90.843749, 255.349963)"><g><path d="M 8.304688 0 L 8.304688 -9.125 L 18.339844 -9.125 L 18.339844 -13.949219 L 8.304688 -13.949219 L 8.304688 -19.632812 L 19.996094 -19.632812 L 19.996094 -24.769531 L 2.53125 -24.769531 L 2.53125 0 Z M 8.304688 0 "/></g></g></g><g fill="#e5014c" fill-opacity="1"><g transform="translate(111.873467, 255.349963)"><g><path d="M 8.304688 0 L 8.304688 -24.769531 L 2.53125 -24.769531 L 2.53125 0 Z M 8.304688 0 "/></g></g></g><g fill="#e5014c" fill-opacity="1"><g transform="translate(122.725167, 255.349963)"><g><path d="M 14.1875 0.566406 C 19.449219 0.566406 25.386719 -2.550781 26.441406 -9.761719 L 20.542969 -9.761719 C 19.6875 -6.136719 17.082031 -4.71875 14.023438 -4.71875 C 10.015625 -4.71875 6.71875 -7.484375 6.71875 -12.402344 C 6.71875 -17.191406 10.015625 -20.105469 14.023438 -20.105469 C 17.101562 -20.105469 19.6875 -18.667969 20.5625 -15.042969 L 26.441406 -15.042969 C 25.386719 -22.273438 19.394531 -25.386719 14.1875 -25.386719 C 6.847656 -25.386719 0.945312 -19.632812 0.945312 -12.421875 C 0.945312 -5.226562 6.847656 0.566406 14.1875 0.566406 Z M 14.1875 0.566406 "/></g></g></g><g fill="#e5014c" fill-opacity="1"><g transform="translate(150.127528, 255.349963)"><g><path d="M 13.347656 0 L 13.347656 -19.632812 L 20.269531 -19.632812 L 20.269531 -24.769531 L 0.675781 -24.769531 L 0.675781 -19.632812 L 7.613281 -19.632812 L 7.613281 0 Z M 13.347656 0 "/></g></g></g><g fill="#e5014c" fill-opacity="1"><g transform="translate(171.066209, 255.349963)"><g><path d="M 8.304688 0 L 8.304688 -24.769531 L 2.53125 -24.769531 L 2.53125 0 Z M 8.304688 0 "/></g></g></g><g fill="#e5014c" fill-opacity="1"><g transform="translate(181.917908, 255.349963)"><g><path d="M 14.1875 0.566406 C 19.449219 0.566406 25.386719 -2.550781 26.441406 -9.761719 L 20.542969 -9.761719 C 19.6875 -6.136719 17.082031 -4.71875 14.023438 -4.71875 C 10.015625 -4.71875 6.71875 -7.484375 6.71875 -12.402344 C 6.71875 -17.191406 10.015625 -20.105469 14.023438 -20.105469 C 17.101562 -20.105469 19.6875 -18.667969 20.5625 -15.042969 L 26.441406 -15.042969 C 25.386719 -22.273438 19.394531 -25.386719 14.1875 -25.386719 C 6.847656 -25.386719 0.945312 -19.632812 0.945312 -12.421875 C 0.945312 -5.226562 6.847656 0.566406 14.1875 0.566406 Z M 14.1875 0.566406 "/></g></g></g><g fill="#e5014c" fill-opacity="1"><g transform="translate(209.320269, 255.349963)"><g><path d="M 14.421875 0.566406 C 21.835938 0.566406 27.882812 -5.226562 27.882812 -12.421875 C 27.882812 -19.632812 21.835938 -25.386719 14.421875 -25.386719 C 6.976562 -25.386719 0.945312 -19.632812 0.945312 -12.421875 C 0.945312 -5.226562 6.976562 0.566406 14.421875 0.566406 Z M 14.421875 -4.71875 C 10.164062 -4.71875 6.71875 -7.941406 6.71875 -12.402344 C 6.71875 -16.882812 10.125 -20.105469 14.421875 -20.105469 C 18.703125 -20.105469 22.128906 -16.882812 22.128906 -12.402344 C 22.128906 -7.941406 18.703125 -4.71875 14.421875 -4.71875 Z M 14.421875 -4.71875 "/></g></g></g><g fill="#e5014c" fill-opacity="1"><g transform="translate(238.161027, 255.349963)"><g><path d="M 8.304688 0 L 8.304688 -8.285156 L 11.984375 -8.285156 L 16.316406 0 L 22.929688 0 L 17.648438 -9.195312 C 20.507812 -10.417969 22.347656 -13.058594 22.347656 -16.425781 C 22.347656 -21.378906 18.628906 -24.769531 13.402344 -24.769531 L 2.53125 -24.769531 L 2.53125 0 Z M 8.304688 -19.632812 L 13.167969 -19.632812 C 15.0625 -19.632812 16.574219 -18.15625 16.574219 -16.425781 C 16.574219 -14.496094 15.078125 -13.113281 13.167969 -13.113281 L 8.304688 -13.113281 Z M 8.304688 -19.632812 "/></g></g></g><g fill="#e5014c" fill-opacity="1"><g transform="translate(261.539519, 255.349963)"><g><path d="M 8.304688 0 L 8.304688 -7.359375 L 13.332031 -7.359375 C 18.484375 -7.359375 22.183594 -10.855469 22.183594 -16.191406 C 22.183594 -21.160156 18.449219 -24.769531 13.257812 -24.769531 L 2.53125 -24.769531 L 2.53125 0 Z M 8.304688 -19.632812 L 13.019531 -19.632812 C 14.914062 -19.632812 16.410156 -17.921875 16.410156 -16.191406 C 16.410156 -14.097656 14.898438 -12.476562 13.019531 -12.476562 L 8.304688 -12.476562 Z M 8.304688 -19.632812 "/></g></g></g></svg>