<svg xmlns="http://www.w3.org/2000/svg" xmlns:xlink="http://www.w3.org/1999/xlink" width="500" zoomAndPan="magnify" viewBox="0 0 375 374.999991" height="500" preserveAspectRatio="xMidYMid meet" version="1.0"><defs><clipPath id="a9162a468d"><path d="M 13.5 37 L 273 37 L 273 273 L 13.5 273 Z M 13.5 37 " clip-rule="nonzero"/></clipPath><clipPath id="392a941d90"><path d="M 102 102 L 338 102 L 338 361.5 L 102 361.5 Z M 102 102 " clip-rule="nonzero"/></clipPath><clipPath id="2b5afe3b07"><path d="M 274 13.5 L 361.5 13.5 L 361.5 101 L 274 101 Z M 274 13.5 " clip-rule="nonzero"/></clipPath></defs><g clip-path="url(#a9162a468d)"><path fill="#e5014c" d="M 53.5 199.507812 C 53.5 199.71875 53.5 199.945312 53.515625 200.152344 L 221.914062 112.554688 L 30.691406 272.175781 C 19.683594 250.324219 13.5 225.628906 13.5 199.507812 C 13.5 110.039062 86.03125 37.519531 175.5 37.519531 C 212.042969 37.519531 245.757812 49.605469 272.847656 70.035156 L 241.023438 96.605469 C 222.09375 84.519531 199.613281 77.523438 175.5 77.523438 C 108.121094 77.523438 53.5 132.128906 53.5 199.507812 Z M 53.5 199.507812 " fill-opacity="1" fill-rule="nonzero"/></g><g clip-path="url(#392a941d90)"><path fill="#e5014c" d="M 337.488281 199.507812 C 337.488281 288.964844 264.957031 361.496094 175.5 361.496094 C 149.367188 361.496094 124.671875 355.3125 102.820312 344.304688 L 120.820312 322.753906 L 129.402344 312.480469 L 262.425781 153.097656 L 174.84375 321.480469 C 175.066406 321.496094 175.277344 321.496094 175.5 321.496094 C 242.867188 321.496094 297.484375 266.875 297.484375 199.507812 C 297.484375 175.382812 290.476562 152.886719 278.40625 133.957031 L 304.960938 102.144531 C 325.386719 129.238281 337.488281 162.964844 337.488281 199.507812 Z M 337.488281 199.507812 " fill-opacity="1" fill-rule="nonzero"/></g><path fill="#e5014c" d="M 73.179688 265.960938 L 42.3125 291.734375 C 53.394531 307.714844 67.277344 321.597656 83.257812 332.683594 L 109.035156 301.816406 L 264.269531 115.851562 L 290.042969 84.96875 L 259.160156 110.742188 Z M 73.179688 265.960938 " fill-opacity="1" fill-rule="nonzero"/><g clip-path="url(#2b5afe3b07)"><path fill="#e5014c" d="M 274.851562 50.339844 C 282.144531 55.292969 289.066406 60.753906 295.570312 66.660156 L 330.324219 44.6875 L 308.347656 79.441406 C 314.25 85.9375 319.703125 92.855469 324.652344 100.140625 L 361.511719 13.5 Z M 274.851562 50.339844 " fill-opacity="1" fill-rule="nonzero"/></g></svg>